<?xml version="1.0" encoding="UTF-8" standalone="no"?>
<!-- Created with Inkscape (http://www.inkscape.org/) -->

<svg
   xmlns:dc="http://purl.org/dc/elements/1.1/"
   xmlns:cc="http://creativecommons.org/ns#"
   xmlns:rdf="http://www.w3.org/1999/02/22-rdf-syntax-ns#"
   xmlns:svg="http://www.w3.org/2000/svg"
   xmlns="http://www.w3.org/2000/svg"
   xmlns:sodipodi="http://sodipodi.sourceforge.net/DTD/sodipodi-0.dtd"
   xmlns:inkscape="http://www.inkscape.org/namespaces/inkscape"
   width="372.12891"
   height="41.289062"
   viewBox="0 0 98.459106 10.924398"
   version="1.1"
   id="svg8"
   inkscape:version="0.92.4 (5da689c313, 2019-01-14)"
   sodipodi:docname="name.svg">
  <defs
     id="defs2">
    <inkscape:path-effect
       effect="simplify"
       id="path-effect4674"
       is_visible="true"
       steps="1"
       threshold="0.000408163"
       smooth_angles="360"
       helper_size="0"
       simplify_individual_paths="false"
       simplify_just_coalesce="false"
       simplifyindividualpaths="false"
       simplifyJustCoalesce="false" />
    <inkscape:path-effect
       effect="simplify"
       id="path-effect4658"
       is_visible="true"
       steps="1"
       threshold="0.000408163"
       smooth_angles="360"
       helper_size="0"
       simplify_individual_paths="false"
       simplify_just_coalesce="false"
       simplifyindividualpaths="false"
       simplifyJustCoalesce="false" />
    <inkscape:path-effect
       effect="simplify"
       id="path-effect4654"
       is_visible="true"
       steps="1"
       threshold="0.000408163"
       smooth_angles="360"
       helper_size="0"
       simplify_individual_paths="false"
       simplify_just_coalesce="false"
       simplifyindividualpaths="false"
       simplifyJustCoalesce="false" />
  </defs>
  <sodipodi:namedview
     id="base"
     pagecolor="#ffffff"
     bordercolor="#666666"
     borderopacity="1.0"
     inkscape:pageopacity="0.0"
     inkscape:pageshadow="2"
     inkscape:zoom="1.4"
     inkscape:cx="276.86229"
     inkscape:cy="-53.129464"
     inkscape:document-units="mm"
     inkscape:current-layer="flowRoot3727"
     showgrid="false"
     units="px"
     fit-margin-top="0"
     fit-margin-left="0"
     fit-margin-right="0"
     fit-margin-bottom="0"
     inkscape:window-width="1600"
     inkscape:window-height="837"
     inkscape:window-x="-8"
     inkscape:window-y="-8"
     inkscape:window-maximized="1" />
  <metadata
     id="metadata5">
    <rdf:RDF>
      <cc:Work
         rdf:about="">
        <dc:format>image/svg+xml</dc:format>
        <dc:type
           rdf:resource="http://purl.org/dc/dcmitype/StillImage" />
        <dc:title />
      </cc:Work>
    </rdf:RDF>
  </metadata>
  <g
     inkscape:label="レイヤー 1"
     inkscape:groupmode="layer"
     id="layer1"
     transform="translate(-41.529248,-90.090378)">
    <g
       aria-label="yamanouchi tetta"
       transform="matrix(0.26458333,0,0,0.26458333,-0.56696429,0.09449377)"
       style="font-style:normal;font-variant:normal;font-weight:normal;font-stretch:normal;font-size:40px;line-height:1.25;font-family:'Segoe Script';-inkscape-font-specification:'Segoe Script';letter-spacing:0px;word-spacing:0px;fill:#000000;fill-opacity:1;stroke:none"
       id="flowRoot3727">
      <path
         d="m 180.36383,350.29539 q 0,0.33203 -0.0195,0.78125 -0.0195,0.42969 -0.0586,0.9961 -0.0391,0.54687 -0.0977,1.13281 -0.0391,0.58594 -0.0977,1.21094 -0.0586,0.625 -0.0977,1.11328 -0.0391,0.46875 -0.0586,0.80078 -0.13672,2.67578 -0.56641,5.50781 -0.42969,2.8125 -1.07422,5.3711 -1.03515,4.23828 -3.00781,7.24609 -1.99219,3.04687 -5.50781,3.04687 -2.30469,0 -4.64844,-0.91796 -2.32422,-0.89844 -3.92578,-2.51954 -0.95703,-1.13281 -0.95703,-1.5625 0,-0.48828 0.29297,-1.11328 0.3125,-0.60547 0.70312,-0.60547 0.21484,0 0.37109,0.23438 0.66407,0.9375 1.26954,1.48437 2.59765,2.30469 6.75781,2.30469 1.64062,0 2.87109,-1.5625 0.625,-0.76172 1.09375,-1.64062 0.48828,-0.87891 0.85938,-1.83594 0.37109,-0.95703 0.66406,-1.95313 0.29297,-0.99609 0.52734,-2.03125 0.19532,-0.95703 0.29297,-1.52343 0.11719,-0.56641 0.13672,-0.76172 0.0977,-0.82031 0.13672,-1.58203 0.0391,-0.76172 0.15625,-1.50391 -0.54688,0.25391 -2.24609,1.28906 -0.9961,0.60547 -1.81641,1.09375 -0.82031,0.48828 -1.46484,0.85938 -1.28907,0.76172 -2.91016,1.44531 -1.64063,0.68359 -2.69531,0.68359 -1.83594,0 -2.83203,-1.46484 -0.9961,-1.46484 -0.9961,-3.37891 0,-1.36718 0.29297,-3.04687 0.15625,-0.83984 0.3125,-1.5625 0.17578,-0.74219 0.37109,-1.38672 0.19532,-0.64453 0.44922,-1.54297 0.27344,-0.89844 0.64453,-2.07031 0.19532,-0.64453 0.42969,-1.11328 0.23438,-0.48828 0.52735,-0.80078 0.3125,-0.33203 0.72265,-0.48828 0.41016,-0.15625 0.9961,-0.15625 0.5664,0 0.89843,0.64453 0.3125,0.60547 0.3125,1.25 0,0.39062 -0.17578,0.70312 -0.0977,0.15625 -0.27344,0.44922 -0.17578,0.29297 -0.44921,0.72266 -0.27344,0.42968 -0.42969,0.72265 -0.15625,0.27344 -0.19531,0.42969 -0.15625,0.46875 -0.27344,0.82031 -0.11719,0.35157 -0.21485,0.58594 -0.0781,0.23438 -0.17578,0.56641 -0.0977,0.3125 -0.23437,0.74218 -0.25391,0.83985 -0.3711,1.54297 -0.0977,0.6836 -0.0977,1.46485 0,0.78125 0.3125,1.89453 0.33203,1.15234 0.89844,1.15234 1.71875,0 4.16015,-0.99609 2.44141,-1.01563 4.41406,-2.63672 1.97266,-1.62109 2.38282,-3.26172 0.0781,-0.23437 0.11718,-0.70312 0.0391,-0.46875 0.0586,-1.03516 0.0391,-0.58594 0.0586,-1.21094 0.0195,-0.625 0.0391,-1.1914 0.0391,-0.58594 0.0781,-1.03516 0.0391,-0.46875 0.11719,-0.70313 0.50781,-1.79687 1.64062,-1.79687 1.07422,0 1.32813,0.54687 0.27343,0.58594 0.27343,1.85547 z"
         id="path4676"
         inkscape:connector-curvature="0"
         inkscape:transform-center-x="-3.3072917"
         inkscape:transform-center-y="-1.7953869" />
      <path
         d="m 194.63672,354.19048 q 0,-0.0391 -0.0586,-0.21485 -0.0586,-0.17578 -0.17578,-0.35156 -0.11718,-0.19531 -0.29297,-0.33203 -0.15625,-0.15625 -0.35156,-0.15625 h -0.0391 q -0.72266,0.0781 -1.54297,0.48828 -0.82031,0.39063 -1.73828,1.23047 -0.91797,0.82031 -1.93359,2.12891 -1.01563,1.30859 -2.10938,3.18359 -0.33203,0.56641 -0.74219,1.25 -0.39062,0.66406 -0.76172,1.48438 -0.35156,0.80078 -0.60546,1.71875 -0.23438,0.91796 -0.23438,1.93359 0,0.60547 0.42969,0.91797 0.44922,0.3125 0.91797,0.3125 0.48828,0 1.26953,-0.52735 0.78125,-0.54687 1.67969,-1.42578 0.91796,-0.89843 1.85546,-2.03125 0.95704,-1.15234 1.75782,-2.36328 0.82031,-1.21094 1.40625,-2.38281 0.60547,-1.17188 0.82031,-2.12891 0.0586,-0.29297 0.13672,-0.68359 0.0781,-0.41016 0.13672,-0.80078 0.0781,-0.41016 0.11718,-0.74219 0.0586,-0.35156 0.0586,-0.50781 z m 15.27344,2.24609 q 0,0.66406 -0.39063,1.42578 -0.37109,0.74219 -0.83984,1.36719 -1.23047,1.66016 -2.57813,3.04688 -1.32812,1.36718 -2.69531,2.59765 -1.42578,1.28906 -2.85156,2.01172 -1.40625,0.72266 -2.53907,0.72266 -0.48828,0 -0.97656,-0.23438 -0.46875,-0.23437 -0.89844,-0.60547 -0.41015,-0.39062 -0.74218,-0.89843 -0.3125,-0.50782 -0.48828,-1.05469 -0.0977,-0.29297 -0.17579,-0.66406 -0.0781,-0.39063 -0.15625,-0.70313 -0.0781,-0.33203 -0.17578,-0.54687 -0.0977,-0.23438 -0.21484,-0.23438 -0.0781,0 -0.33203,0.25391 -0.25391,0.2539 -0.60547,0.66406 -0.33203,0.39062 -0.72266,0.89844 -0.39062,0.48828 -0.78125,0.95703 -0.37109,0.46875 -0.68359,0.85937 -0.29297,0.39063 -0.46875,0.58594 -0.60547,0.68359 -1.44531,1.40625 -0.82032,0.70313 -1.66016,1.28906 -0.82031,0.58594 -1.52344,0.95703 -0.68359,0.3711 -1.01562,0.3711 -0.74219,0 -1.44531,-0.23438 -0.6836,-0.2539 -1.21094,-0.72265 -0.52735,-0.46875 -0.85938,-1.15235 -0.3125,-0.68359 -0.3125,-1.5625 0,-1.44531 0.56641,-3.30078 0.58594,-1.85547 1.52344,-3.76953 0.95703,-1.91406 2.1875,-3.67187 1.23047,-1.77735 2.55859,-3.04688 1.54297,-1.46484 3.22266,-2.14844 1.69922,-0.70312 3.47656,-0.70312 0.33203,0 0.56641,0.13672 0.2539,0.13672 0.42968,0.35156 0.17578,0.21484 0.3125,0.48828 0.13672,0.25391 0.27344,0.52734 0.0781,0.17579 0.33203,0.39063 0.25391,0.21484 0.52735,0.44922 0.27343,0.21484 0.46875,0.42969 0.21484,0.21484 0.21484,0.41015 0,0.41016 -0.17578,0.91797 -0.15625,0.48828 -0.35156,1.15234 -0.19532,0.64454 -0.3711,1.48438 -0.15625,0.82031 -0.15625,1.89453 0,0.70313 0.11719,1.60156 0.13672,0.89844 0.39062,1.71875 0.27344,0.80078 0.6836,1.34766 0.41015,0.54687 0.95703,0.54687 0.66406,0 1.32812,-0.37109 0.66407,-0.39062 1.52344,-1.07422 1.91406,-1.52344 3.63281,-3.33984 1.71875,-1.81641 3.51563,-3.61328 0.3125,-0.3125 0.58594,-0.3125 0.44922,0 0.44922,0.70312 z"
         id="path4678"
         inkscape:connector-curvature="0" />
      <path
         d="m 250.57422,358.40923 q 0,0.17578 -0.0781,0.44922 -0.0586,0.27343 -0.17578,0.58593 -0.0977,0.3125 -0.2539,0.64454 -0.13672,0.3125 -0.3125,0.5664 -0.33204,0.50781 -0.87891,1.17188 -0.52734,0.66406 -1.17188,1.38672 -0.64453,0.70312 -1.38671,1.42578 -0.72266,0.70312 -1.42579,1.28906 -0.5664,0.46875 -1.30859,1.03516 -0.74219,0.5664 -1.5625,1.05468 -0.82031,0.48828 -1.67969,0.82032 -0.85937,0.3125 -1.62109,0.3125 -0.68359,0 -1.25,-0.19532 -0.54688,-0.19531 -1.01563,-0.72265 -0.44921,-0.54688 -0.80078,-1.48438 -0.35156,-0.9375 -0.60547,-2.42187 -0.11718,-0.625 -0.21484,-1.32813 -0.0781,-0.72265 -0.17578,-1.42578 -0.0781,-0.70312 -0.15625,-1.34766 -0.0781,-0.66406 -0.19531,-1.15234 -0.0977,-0.50781 -0.23438,-0.80078 -0.11719,-0.29297 -0.27344,-0.29297 -0.2539,0 -0.72265,0.42969 -0.44922,0.42969 -1.07422,1.25 -0.60547,0.80078 -1.34766,1.93359 -0.72265,1.13281 -1.52343,2.53906 -1.58204,2.8125 -2.67579,4.27735 -1.09375,1.46484 -1.99218,1.46484 -1.34766,0 -1.81641,-1.26953 -0.42969,-1.28906 -0.52734,-4.31641 -0.0586,-2.94921 -0.42969,-4.53125 -0.35156,-1.60156 -0.91797,-1.60156 -0.35156,0 -1.03516,0.64453 -0.66406,0.625 -1.52343,1.73828 -0.83985,1.11329 -1.83594,2.63672 -0.99609,1.50391 -1.99219,3.28125 -0.27344,0.46875 -0.625,1.07422 -0.35156,0.60547 -0.72265,1.23047 -0.35157,0.60547 -0.70313,1.15234 -0.33203,0.54688 -0.58594,0.89844 -0.5664,0.82031 -1.36718,0.82031 -1.48438,0 -1.95313,-1.52343 -0.11719,-0.39063 -0.19531,-0.625 -0.0586,-0.25391 -0.0977,-0.48828 -0.0391,-0.25391 -0.0586,-0.54688 0,-0.29297 0,-0.76172 0,-0.78125 0.0391,-1.42578 0.0586,-0.66406 0.13672,-1.32812 0.0781,-0.66407 0.19531,-1.42579 0.11719,-0.76171 0.23438,-1.77734 0.0977,-0.83984 0.17578,-1.79687 0.0781,-0.95704 0.13672,-1.85547 0.0781,-0.91797 0.13672,-1.67969 0.0781,-0.76172 0.19531,-1.21094 0.0586,-0.23437 0.27344,-0.54687 0.21484,-0.3125 0.48828,-0.58594 0.29297,-0.29297 0.60547,-0.48828 0.3125,-0.21485 0.54687,-0.21485 0.41016,0 0.66406,0.19532 0.27344,0.17578 0.42969,0.48828 0.17578,0.3125 0.23438,0.74219 0.0781,0.41015 0.0781,0.85937 0,0.46875 -0.0977,1.17188 -0.0781,0.70312 -0.21484,1.52343 -0.13672,0.82032 -0.3125,1.69922 -0.15625,0.87891 -0.3125,1.67969 -0.15625,0.80078 -0.29297,1.48437 -0.11719,0.66407 -0.17578,1.09375 -0.17578,1.07422 -0.23437,1.71875 -0.0586,0.625 -0.0586,1.01563 0.25391,-0.25391 0.64453,-0.76172 0.39063,-0.50781 0.85938,-1.19141 0.46875,-0.68359 0.97656,-1.5039 0.52734,-0.82031 1.05469,-1.67969 0.37109,-0.60547 0.82031,-1.36719 0.46875,-0.76172 0.95703,-1.52343 0.50781,-0.78125 0.9961,-1.46485 0.48828,-0.68359 0.89843,-1.15234 0.82032,-0.9375 1.69922,-1.42578 0.87891,-0.48828 1.83594,-0.48828 0.9375,0 1.62109,0.74218 0.70313,0.72266 0.9375,1.89453 0.11719,0.54688 0.17578,1.26954 0.0781,0.70312 0.13672,1.48437 0.0586,0.78125 0.0977,1.5625 0.0586,0.78125 0.11719,1.48438 0.0586,0.68359 0.15625,1.13281 0.11718,0.44922 0.23437,0.72265 0.11719,0.25391 0.21485,0.3711 0.0977,0.0977 0.15625,0.0977 0.37109,0 1.25,-1.54296 0.44921,-0.78125 0.99609,-1.73829 0.54687,-0.95703 1.21094,-2.10937 0.66406,-1.13281 1.42578,-2.1875 0.76172,-1.05469 1.48437,-1.85547 0.74219,-0.82031 1.38672,-1.28906 0.64453,-0.48828 1.09375,-0.48828 0.29297,0 0.60547,0.0586 0.3125,0.0586 0.60547,0.17578 0.29297,0.11719 0.50781,0.29297 0.23438,0.15625 0.35156,0.35156 0.29297,0.46875 0.41016,1.07422 0.13672,0.58594 0.19531,1.36719 0.0586,0.76172 0.0977,1.71875 0.0586,0.9375 0.17578,2.08984 0.27344,2.44141 0.83984,3.65235 0.58594,1.1914 1.66016,1.1914 0.41016,0 1.03516,-0.27343 0.625,-0.27344 1.32812,-0.70313 0.70313,-0.44922 1.42578,-0.99609 0.72266,-0.56641 1.34766,-1.11328 0.625,-0.54688 1.19141,-1.09375 0.58593,-0.56641 1.17187,-1.13282 0.58594,-0.58593 1.19141,-1.21093 0.625,-0.625 1.32812,-1.32813 0.23438,-0.23437 0.42969,-0.23437 0.29297,0 0.29297,0.50781 z"
         id="path4680"
         inkscape:connector-curvature="0" />
      <path
         d="m 259.79297,354.19048 q 0,-0.0391 -0.0586,-0.21485 -0.0586,-0.17578 -0.17578,-0.35156 -0.11718,-0.19531 -0.29297,-0.33203 -0.15625,-0.15625 -0.35156,-0.15625 h -0.0391 q -0.72266,0.0781 -1.54297,0.48828 -0.82031,0.39063 -1.73828,1.23047 -0.91797,0.82031 -1.93359,2.12891 -1.01563,1.30859 -2.10938,3.18359 -0.33203,0.56641 -0.74219,1.25 -0.39062,0.66406 -0.76172,1.48438 -0.35156,0.80078 -0.60546,1.71875 -0.23438,0.91796 -0.23438,1.93359 0,0.60547 0.42969,0.91797 0.44922,0.3125 0.91797,0.3125 0.48828,0 1.26953,-0.52735 0.78125,-0.54687 1.67969,-1.42578 0.91796,-0.89843 1.85546,-2.03125 0.95704,-1.15234 1.75782,-2.36328 0.82031,-1.21094 1.40625,-2.38281 0.60547,-1.17188 0.82031,-2.12891 0.0586,-0.29297 0.13672,-0.68359 0.0781,-0.41016 0.13672,-0.80078 0.0781,-0.41016 0.11718,-0.74219 0.0586,-0.35156 0.0586,-0.50781 z m 15.27344,2.24609 q 0,0.66406 -0.39063,1.42578 -0.37109,0.74219 -0.83984,1.36719 -1.23047,1.66016 -2.57813,3.04688 -1.32812,1.36718 -2.69531,2.59765 -1.42578,1.28906 -2.85156,2.01172 -1.40625,0.72266 -2.53907,0.72266 -0.48828,0 -0.97656,-0.23438 -0.46875,-0.23437 -0.89844,-0.60547 -0.41015,-0.39062 -0.74218,-0.89843 -0.3125,-0.50782 -0.48828,-1.05469 -0.0977,-0.29297 -0.17579,-0.66406 -0.0781,-0.39063 -0.15625,-0.70313 -0.0781,-0.33203 -0.17578,-0.54687 -0.0976,-0.23438 -0.21484,-0.23438 -0.0781,0 -0.33203,0.25391 -0.25391,0.2539 -0.60547,0.66406 -0.33203,0.39062 -0.72266,0.89844 -0.39062,0.48828 -0.78125,0.95703 -0.37109,0.46875 -0.68359,0.85937 -0.29297,0.39063 -0.46875,0.58594 -0.60547,0.68359 -1.44531,1.40625 -0.82032,0.70313 -1.66016,1.28906 -0.82031,0.58594 -1.52344,0.95703 -0.68359,0.3711 -1.01562,0.3711 -0.74219,0 -1.44531,-0.23438 -0.6836,-0.2539 -1.21094,-0.72265 -0.52735,-0.46875 -0.85938,-1.15235 -0.3125,-0.68359 -0.3125,-1.5625 0,-1.44531 0.56641,-3.30078 0.58594,-1.85547 1.52344,-3.76953 0.95703,-1.91406 2.1875,-3.67187 1.23047,-1.77735 2.55859,-3.04688 1.54297,-1.46484 3.22266,-2.14844 1.69922,-0.70312 3.47656,-0.70312 0.33203,0 0.56641,0.13672 0.2539,0.13672 0.42968,0.35156 0.17578,0.21484 0.3125,0.48828 0.13672,0.25391 0.27344,0.52734 0.0781,0.17579 0.33203,0.39063 0.25391,0.21484 0.52735,0.44922 0.27343,0.21484 0.46875,0.42969 0.21484,0.21484 0.21484,0.41015 0,0.41016 -0.17578,0.91797 -0.15625,0.48828 -0.35156,1.15234 -0.19532,0.64454 -0.3711,1.48438 -0.15625,0.82031 -0.15625,1.89453 0,0.70313 0.11719,1.60156 0.13672,0.89844 0.39062,1.71875 0.27344,0.80078 0.6836,1.34766 0.41015,0.54687 0.95703,0.54687 0.66406,0 1.32812,-0.37109 0.66407,-0.39062 1.52344,-1.07422 1.91406,-1.52344 3.63281,-3.33984 1.71875,-1.81641 3.51563,-3.61328 0.3125,-0.3125 0.58594,-0.3125 0.44922,0 0.44922,0.70312 z"
         id="path4682"
         inkscape:connector-curvature="0" />
      <path
         d="m 305.92578,358.05767 q 0,0.37109 -0.13672,0.76171 -0.11719,0.3711 -0.3125,0.76172 -0.17578,0.3711 -0.41015,0.74219 -0.23438,0.35156 -0.44922,0.68359 -0.56641,0.87891 -1.32813,1.79688 -0.76172,0.89844 -1.64062,1.75781 -0.85938,0.85938 -1.77735,1.6211 -0.91797,0.76171 -1.79687,1.34765 -0.70313,0.46875 -1.34766,0.87891 -0.625,0.41015 -1.26953,0.70312 -0.64453,0.29297 -1.34766,0.46875 -0.70312,0.17578 -1.54296,0.17578 -1.6211,0 -2.63672,-0.82031 -0.50782,-0.41015 -0.89844,-1.05469 -0.37109,-0.66406 -0.66406,-1.46484 -0.27344,-0.80078 -0.48828,-1.69922 -0.19532,-0.89844 -0.33204,-1.77734 -0.17578,-1.09375 -0.33203,-1.95313 -0.15625,-0.8789 -0.37109,-1.46484 -0.19531,-0.60547 -0.48828,-0.91797 -0.29297,-0.33203 -0.76172,-0.33203 -0.37109,0 -0.70313,0.0781 -0.33203,0.0781 -0.70312,0.3125 -0.35156,0.23438 -0.78125,0.66407 -0.42969,0.42968 -1.01563,1.13281 -0.5664,0.70312 -1.30859,1.71875 -0.74219,1.01562 -1.73828,2.42187 -0.48828,0.6836 -1.15234,1.50391 -0.66407,0.82031 -1.36719,1.5625 -0.6836,0.74219 -1.34766,1.30859 -0.66406,0.56641 -1.17187,0.72266 -1.71875,-0.37109 -1.71875,-4.27734 0,-1.03516 0.23437,-3.14453 0.11719,-0.95704 0.27344,-1.99219 0.15625,-1.05469 0.39062,-2.08985 0.23438,-1.05468 0.52735,-2.03125 0.3125,-0.99609 0.72265,-1.83593 0.19532,-0.39063 0.41016,-0.60547 0.21484,-0.23438 0.42969,-0.33203 0.23437,-0.11719 0.46875,-0.13672 0.2539,-0.0391 0.50781,-0.0391 0.3125,0 0.54688,0.42968 0.2539,0.42969 0.2539,1.19141 0,0.46875 -0.0781,0.87891 -0.0781,0.41015 -0.21485,0.83984 -0.13672,0.42969 -0.29297,0.9375 -0.15625,0.48828 -0.3125,1.13281 -0.11718,0.52735 -0.27343,1.17188 -0.13672,0.64453 -0.27344,1.30859 -0.11719,0.66406 -0.21484,1.30859 -0.0781,0.625 -0.0781,1.13282 0,0.35156 0.11719,0.72265 0.54687,-0.0586 1.79687,-1.64062 0.64453,-0.80078 1.40625,-1.75781 0.78125,-0.95704 1.67969,-2.10938 0.66406,-0.85937 1.30859,-1.60156 0.66407,-0.74219 1.36719,-1.28906 0.70313,-0.56641 1.48438,-0.87891 0.80078,-0.33203 1.75781,-0.33203 1.01562,0 1.67969,0.44922 0.68359,0.42968 1.09375,1.21093 0.41015,0.76172 0.625,1.83594 0.23437,1.07422 0.37109,2.36328 0.11719,1.09375 0.21484,2.16797 0.11719,1.07422 0.42969,1.9336 0.3125,0.83984 0.89844,1.36718 0.58594,0.52735 1.67969,0.52735 0.83984,0 1.75781,-0.39063 0.91797,-0.39062 1.93359,-1.07422 1.01563,-0.70312 2.08985,-1.64062 1.09375,-0.9375 2.24609,-2.05078 0.44922,-0.42969 0.97656,-1.07422 0.54688,-0.66406 1.05469,-1.26953 0.52734,-0.60547 0.97656,-1.03516 0.44922,-0.42969 0.72266,-0.42969 0.11719,0 0.37109,0.11719 0.27344,0.11719 0.27344,0.39063 z"
         id="path4684"
         inkscape:connector-curvature="0" />
      <path
         d="m 329.48047,354.79595 q 0,0.33203 -0.23438,0.72265 -0.23437,0.39063 -0.60547,0.80078 -0.37109,0.39063 -0.83984,0.78125 -0.46875,0.3711 -0.9375,0.70313 -0.46875,0.3125 -0.89844,0.56641 -0.41015,0.23437 -0.68359,0.35156 -0.50781,0.21484 -1.34766,0.39062 -0.82031,0.15625 -1.71875,0.27344 -0.89843,0.11719 -1.75781,0.19531 -0.85937,0.0586 -1.44531,0.0586 -0.23438,0 -0.64453,-0.0781 -0.41016,-0.0781 -0.83985,-0.19531 -0.42968,-0.11719 -0.82031,-0.25391 -0.37109,-0.15625 -0.54687,-0.3125 0.17578,0.74219 0.3125,1.50391 0.13671,0.74219 0.13671,1.54297 0,0.35156 -0.0976,0.85937 -0.0781,0.50782 -0.23438,1.03516 -0.13672,0.50781 -0.3125,0.99609 -0.17578,0.46875 -0.37109,0.78125 -0.50781,0.85938 -1.05469,1.5625 -0.52734,0.70313 -1.21094,1.3086 -0.66406,0.58593 -1.5039,1.11328 -0.83985,0.52734 -1.9336,1.01562 -1.17187,0.50782 -2.36328,0.72266 -1.17187,0.19531 -2.4414,0.19531 -0.80078,0 -1.42578,-0.46875 -0.625,-0.46875 -1.05469,-1.25 -0.42969,-0.80078 -0.66406,-1.83594 -0.21485,-1.03515 -0.21485,-2.16796 0,-0.29297 0.0391,-0.72266 0.0586,-0.42969 0.13672,-0.87891 0.0977,-0.44922 0.19532,-0.85937 0.0976,-0.41016 0.19531,-0.70313 0.27344,-0.82031 0.78125,-1.875 0.50781,-1.05468 1.1914,-2.14843 0.6836,-1.11329 1.52344,-2.16797 0.83985,-1.07422 1.75781,-1.91407 0.91797,-0.83984 1.91407,-1.34765 0.99609,-0.50781 1.99218,-0.50781 0.33204,0 0.52735,0.0977 0.21484,0.0977 0.35156,0.25391 0.15625,0.15625 0.27344,0.33203 0.11719,0.17578 0.27344,0.35156 0.0586,0.0977 0.17578,0.0977 0.15625,0 0.39062,-0.0781 0.23438,-0.0781 0.52735,-0.0781 0.37109,0 0.91796,0.48828 0.54688,0.46875 1.13282,1.05469 0.60547,0.5664 1.1914,1.05468 0.60547,0.46875 1.07422,0.46875 0.52735,0 1.13281,-0.0195 0.60547,-0.0195 1.23047,-0.0586 0.625,-0.0586 1.23047,-0.13672 0.60547,-0.0781 1.11328,-0.17578 0.13672,-0.0391 0.64453,-0.17578 0.50782,-0.13672 1.17188,-0.3125 0.68359,-0.19531 1.42578,-0.41016 0.76172,-0.21484 1.40625,-0.39062 0.64453,-0.19532 1.05469,-0.3125 0.42969,-0.11719 0.46875,-0.11719 0.11719,0 0.21484,0.0586 0.0977,0.0586 0.0977,0.21485 z m -15.23438,3.125 q -0.11718,-0.39063 -0.46875,-0.76172 -0.33203,-0.3711 -0.78125,-0.66406 -0.42968,-0.29297 -0.91797,-0.46875 -0.48828,-0.19532 -0.91796,-0.19532 -0.35157,0 -0.6836,0.11719 -0.33203,0.11719 -0.66406,0.3125 -0.3125,0.17578 -0.60547,0.41016 -0.29297,0.21484 -0.54687,0.41015 -0.76172,0.64453 -1.46485,1.81641 -0.68359,1.15234 -1.21094,2.5 -0.50781,1.32812 -0.82031,2.65625 -0.3125,1.32812 -0.3125,2.30469 0,0.42968 0.13672,0.83984 0.15625,0.39063 0.42969,0.70313 0.27344,0.29296 0.64453,0.48828 0.37109,0.17578 0.82031,0.17578 1.17188,0 2.16797,-0.41016 0.99609,-0.42969 1.79688,-1.15234 0.82031,-0.74219 1.44531,-1.75781 0.625,-1.01563 1.05469,-2.1875 0.42968,-1.19141 0.64453,-2.5 0.23437,-1.3086 0.2539,-2.63672 z"
         id="path4686"
         inkscape:connector-curvature="0" />
      <path
         d="m 360.73047,356.22173 q 0,0.74219 -0.3711,1.69922 -0.37109,0.9375 -1.01562,1.75781 -0.82031,1.05469 -1.85547,2.08984 -1.01562,1.03516 -2.12891,1.99219 -1.11328,0.9375 -2.26562,1.75781 -1.15234,0.80078 -2.24609,1.40625 -1.07422,0.58594 -2.03125,0.9375 -0.95704,0.33203 -1.67969,0.33203 -0.91797,0 -1.60156,-0.3125 -0.6836,-0.3125 -1.19141,-0.83984 -0.48828,-0.54687 -0.82031,-1.26953 -0.33203,-0.72266 -0.58594,-1.52344 -0.23438,-0.80078 -0.39063,-1.64062 -0.15625,-0.85938 -0.29296,-1.66016 -0.48829,0.74219 -1.11329,1.67969 -0.60546,0.91797 -1.28906,1.875 -0.66406,0.95703 -1.36719,1.85547 -0.68359,0.8789 -1.28906,1.54297 -0.68359,0.72265 -1.5039,1.38671 -0.80079,0.66407 -1.71875,1.17188 -0.89844,0.48828 -1.89454,0.80078 -0.99609,0.29297 -2.05078,0.29297 -1.54297,0 -2.42187,-1.26953 -0.85938,-1.26953 -0.85938,-2.92969 0,-0.78125 0.11719,-1.62109 0.13672,-0.85938 0.29297,-1.69922 0.17578,-0.83985 0.33203,-1.64063 0.15625,-0.82031 0.21484,-1.54297 0.0195,-0.29296 0.0195,-0.72265 0.0195,-0.44922 0.0195,-1.03516 0,-0.52734 0,-0.95703 0,-0.44922 0.0195,-0.83984 0.0195,-0.41016 0.0586,-0.80078 0.0391,-0.39063 0.11719,-0.82032 0.11719,-0.66406 0.52734,-1.15234 0.41016,-0.48828 1.28907,-0.48828 1.79687,0 1.79687,2.48047 0,0.42968 -0.0977,0.95703 -0.0781,0.50781 -0.19531,1.07422 -0.11719,0.54687 -0.2539,1.13281 -0.11719,0.56641 -0.21485,1.11328 -0.19531,0.76172 -0.39062,1.52344 -0.19532,0.76172 -0.3711,1.48437 -0.15625,0.72266 -0.2539,1.40625 -0.0977,0.66407 -0.0977,1.23047 0,0.29297 0.0781,0.66406 0.0781,0.35157 0.23437,0.6836 0.15625,0.3125 0.41016,0.52734 0.27343,0.21485 0.625,0.21485 1.03515,0 2.08984,-0.56641 1.05469,-0.58594 2.01172,-1.42578 0.97656,-0.85938 1.81641,-1.81641 0.85937,-0.97656 1.5039,-1.77734 0.625,-0.80078 1.23047,-1.89453 0.625,-1.09375 1.17188,-2.26563 0.5664,-1.1914 1.07421,-2.36328 0.50782,-1.17187 0.91797,-2.10937 0.91797,-2.14844 1.64063,-2.14844 0.52734,0 0.70312,0.17578 0.17578,0.15625 0.17578,0.66406 0,0.39063 -0.0976,1.05469 -0.0781,0.66406 -0.19531,1.38672 -0.11719,0.72265 -0.21485,1.38672 -0.0781,0.66406 -0.0781,1.03515 0,0.33203 0,0.82032 0.0195,0.46875 0.0391,0.97656 0.0195,0.50781 0.0586,1.01562 0.0586,0.48828 0.13672,0.83985 0.0781,0.41015 0.27344,1.01562 0.19531,0.58594 0.48828,1.15235 0.3125,0.5664 0.74219,0.97656 0.42969,0.39062 0.99609,0.39062 1.05469,0 2.38281,-0.625 1.34766,-0.625 2.75391,-1.60156 1.40625,-0.99609 2.79297,-2.20703 1.38672,-1.23047 2.57812,-2.42188 0.46875,-0.46875 0.9375,-0.9375 0.48829,-0.46875 0.87891,-0.78125 0.41016,-0.3125 0.64453,-0.41015 0.25391,-0.0977 0.25391,0.15625 z"
         id="path4688"
         inkscape:connector-curvature="0" />
      <path
         d="m 380.98437,354.38579 q 0,0.29297 -0.17578,0.83984 -0.17578,0.54688 -0.48828,1.21094 -0.29297,0.66406 -0.70312,1.38672 -0.39063,0.70313 -0.83985,1.30859 -1.36718,1.85547 -2.69531,3.35938 -1.30859,1.48437 -2.63672,2.71484 -1.30859,1.23047 -2.67578,2.22657 -1.34766,0.99609 -2.77344,1.8164 -0.99609,0.56641 -1.8164,0.91797 -0.82032,0.35156 -1.6211,0.54688 -0.80078,0.17578 -1.66015,0.23437 -0.83985,0.0586 -1.875,0.0586 -1.03516,0 -1.91407,-0.33203 -0.85937,-0.33203 -1.48437,-1.01562 -0.625,-0.70313 -0.97656,-1.75781 -0.35157,-1.07422 -0.35157,-2.53907 0,-0.82031 0.23438,-1.875 0.23437,-1.07422 0.64453,-2.22656 0.41016,-1.17187 0.95703,-2.36328 0.56641,-1.19141 1.21094,-2.26563 0.64453,-1.09375 1.34766,-2.01171 0.72265,-0.91797 1.44531,-1.52344 0.39062,-0.33203 0.97656,-0.64453 0.58594,-0.3125 1.21094,-0.54688 0.625,-0.2539 1.23047,-0.39062 0.625,-0.15625 1.07422,-0.15625 0.60546,0 1.26953,0.29297 0.66406,0.29296 1.21093,0.74218 0.56641,0.42969 0.91797,0.95703 0.35157,0.50782 0.35157,0.97657 0,0.35156 -0.11719,0.72265 -0.11719,0.3711 -0.3125,0.6836 -0.19531,0.3125 -0.42969,0.52734 -0.23437,0.19531 -0.48828,0.19531 -0.44922,0 -0.72266,-0.37109 -0.27343,-0.39063 -0.54687,-0.83984 -0.25391,-0.46875 -0.58594,-0.83985 -0.33203,-0.39062 -0.91797,-0.39062 -0.8789,0 -1.73828,0.625 -0.83984,0.625 -1.62109,1.64062 -0.78125,0.9961 -1.44532,2.2461 -0.66406,1.23046 -1.15234,2.48046 -0.48828,1.23047 -0.76172,2.34375 -0.27344,1.09375 -0.27344,1.81641 0,0.80078 0.29297,1.36719 0.3125,0.54687 0.78125,0.89844 0.48828,0.35156 1.07422,0.50781 0.60547,0.15625 1.19141,0.15625 0.66406,0 1.5039,-0.19531 0.85938,-0.19532 1.71875,-0.50782 0.85938,-0.3125 1.66016,-0.70312 0.80078,-0.39063 1.38672,-0.80078 1.54297,-1.05469 3.08594,-2.46094 1.54297,-1.42578 2.92968,-2.98828 1.40625,-1.5625 2.57813,-3.16406 1.19141,-1.60157 2.03125,-3.04688 0.15625,-0.25391 0.33203,-0.35156 0.17578,-0.11719 0.35156,-0.11719 0.3125,0 0.54688,0.21484 0.2539,0.21485 0.2539,0.41016 z"
         id="path4690"
         inkscape:connector-curvature="0" />
      <path
         d="m 411.47266,356.88579 q 0,0.39063 -0.58594,1.28906 -0.23438,0.35157 -0.56641,0.80078 -0.33203,0.42969 -0.68359,0.85938 -0.35156,0.42969 -0.70313,0.82031 -0.35156,0.39063 -0.625,0.66406 -1.15234,1.15235 -2.40234,2.36329 -1.25,1.1914 -2.59766,2.1875 -1.34765,0.99609 -2.79297,1.64062 -1.42578,0.64453 -2.94921,0.68359 -2.28516,0 -3.30079,-1.89453 -0.48828,-0.9375 -0.85937,-2.22656 -0.35156,-1.30859 -0.52734,-3.20312 -0.0781,-0.85938 -0.17579,-1.58204 -0.0976,-0.72265 -0.2539,-1.23046 -0.15625,-0.52735 -0.42969,-0.80079 -0.25391,-0.29296 -0.68359,-0.29296 -0.35157,0 -0.89844,0.33203 -0.54688,0.33203 -1.21094,0.91797 -0.66406,0.58593 -1.38672,1.40625 -0.72265,0.80078 -1.42578,1.75781 -0.42969,0.58594 -1.05469,1.46484 -0.60546,0.87891 -1.28906,1.875 -0.68359,0.9961 -1.38672,2.03125 -0.68359,1.01563 -1.26953,1.89453 -0.11719,0.17578 -0.48828,0.56641 -0.37109,0.39062 -0.82031,0.80078 -0.42969,0.39063 -0.83985,0.68359 -0.41015,0.29297 -0.64453,0.29297 -0.39062,0 -0.76172,-0.0586 -0.37109,-0.0781 -0.66406,-0.23438 -0.27344,-0.15625 -0.44922,-0.39062 -0.17578,-0.25391 -0.17578,-0.625 0,-0.25391 0.0781,-0.76172 0.0781,-0.52734 0.17578,-1.09375 0.0976,-0.58594 0.21484,-1.11328 0.11719,-0.54688 0.19531,-0.85938 0.27344,-1.58203 0.56641,-3.24218 0.29297,-1.67969 0.58594,-3.35938 0.29297,-1.67969 0.5664,-3.33984 0.27344,-1.66016 0.48829,-3.22266 0.0586,-0.46875 0.15625,-1.17187 0.0976,-0.72266 0.19531,-1.54297 0.0976,-0.83985 0.19531,-1.73828 0.11719,-0.89844 0.21484,-1.73828 0.11719,-0.85938 0.19532,-1.5625 0.0781,-0.72266 0.13672,-1.21094 0.0586,-0.46875 0.23437,-1.03516 0.17578,-0.5664 0.42969,-1.03515 0.27344,-0.48829 0.58594,-0.82032 0.33203,-0.33203 0.66406,-0.33203 0.3125,0 0.66406,0.13672 0.37109,0.13672 0.66406,0.42969 0.3125,0.29297 0.50782,0.76172 0.21484,0.44922 0.21484,1.09375 0,1.5625 -0.25391,3.16406 -0.2539,1.58203 -0.625,3.125 -0.35156,1.54297 -0.76172,2.98828 -0.41015,1.42578 -0.70312,2.69531 -0.0781,0.33203 -0.25391,1.03516 -0.15625,0.70312 -0.35156,1.64062 -0.19531,0.91797 -0.41016,1.99219 -0.21484,1.05469 -0.41015,2.08985 -0.17578,1.01562 -0.3125,1.93359 -0.11719,0.91797 -0.15625,1.54297 0,0.11719 0.11719,0.27344 0.13671,0.15625 0.23437,0.15625 h 0.0781 q 0.83984,-1.40625 1.73828,-2.77344 0.91797,-1.36719 1.8164,-2.59766 0.89844,-1.25 1.75782,-2.32422 0.8789,-1.07422 1.66015,-1.875 1.3086,-1.34765 2.71485,-2.1289 1.42578,-0.78125 2.57812,-0.78125 0.15625,0 0.41016,0.13672 0.27343,0.13671 0.54687,0.35156 0.29297,0.21484 0.52735,0.48828 0.23437,0.25391 0.33203,0.52734 0.39062,1.05469 0.5664,2.10938 0.19532,1.05469 0.3125,2.22656 0.11719,1.15234 0.27344,2.22656 0.17578,1.05469 0.42969,1.875 0.2539,0.82032 0.625,1.32813 0.37109,0.48828 0.89844,0.48828 1.05468,0 2.1289,-0.41016 1.09375,-0.41015 2.12891,-1.03515 1.05469,-0.625 1.97265,-1.34766 0.9375,-0.74219 1.67969,-1.38672 0.66406,-0.5664 1.44531,-1.25 0.80079,-0.70312 1.73829,-1.58203 1.91406,-1.73828 2.20703,-1.73828 0.29297,0 0.29297,0.80078 z"
         id="path4692"
         inkscape:connector-curvature="0" />
      <path
         d="m 423.46484,365.77251 q 0,0.29297 -0.23437,0.76172 -0.21485,0.46875 -0.64453,1.03515 -0.41016,0.56641 -1.01563,1.19141 -0.58594,0.60547 -1.32812,1.15234 -0.41016,0.3125 -1.07422,0.74219 -0.64453,0.42969 -1.50391,0.82031 -0.83984,0.3711 -1.85547,0.625 -1.01562,0.27344 -2.1875,0.27344 -1.36718,0 -2.36328,-0.54687 -0.99609,-0.54688 -1.64062,-1.42578 -0.64453,-0.89844 -0.95703,-2.01172 -0.3125,-1.13282 -0.3125,-2.28516 0,-1.40625 0.19531,-2.94922 0.21484,-1.54297 0.46875,-2.89062 0.2539,-1.36719 0.46875,-2.36328 0.21484,-0.9961 0.21484,-1.3086 0,-0.37109 0.0586,-0.83984 0.0781,-0.46875 0.2539,-0.87891 0.17578,-0.41015 0.46875,-0.68359 0.3125,-0.27344 0.76172,-0.27344 0.54688,0 0.91797,0.15625 0.39062,0.13672 0.625,0.35156 0.25391,0.21485 0.37109,0.44922 0.11719,0.23438 0.11719,0.42969 0,0.58594 -0.3125,1.54297 -0.29297,0.9375 -0.66406,2.14844 -0.35156,1.21093 -0.66406,2.65625 -0.29297,1.42578 -0.29297,3.00781 0,0.78125 0.0781,1.66015 0.0977,0.85938 0.3711,1.58204 0.29296,0.72265 0.83984,1.21093 0.54687,0.46875 1.48437,0.46875 0.78125,0 1.60157,-0.23437 0.83984,-0.25391 1.62109,-0.625 0.78125,-0.39063 1.46484,-0.83985 0.6836,-0.44921 1.19141,-0.83984 0.50781,-0.41016 0.91797,-0.76172 0.42969,-0.37109 0.78125,-0.64453 0.35156,-0.27344 0.625,-0.42969 0.27344,-0.17578 0.48828,-0.17578 0.44922,0 0.54688,0.23438 0.11718,0.23437 0.11718,0.50781 z m -6.66015,-21.64063 q 0,0.19532 -0.0781,0.56641 -0.0781,0.37109 -0.21484,0.80078 -0.11719,0.42969 -0.27344,0.85938 -0.15625,0.41015 -0.29297,0.70312 -0.13672,0.29297 -0.44922,0.54688 -0.3125,0.23437 -0.68359,0.41015 -0.37109,0.17578 -0.74219,0.27344 -0.37109,0.0977 -0.60547,0.0977 -0.17578,0 -0.27343,-0.0977 -0.0977,-0.0977 -0.15625,-0.25391 -0.0391,-0.15625 -0.0586,-0.35156 -0.0195,-0.19531 -0.0391,-0.37109 l -0.0977,-0.60547 q -0.0391,-0.17578 -0.11718,-0.29297 -0.0586,-0.13672 -0.13672,-0.29297 -0.0781,-0.15625 -0.13672,-0.37109 -0.0586,-0.23438 -0.0586,-0.60547 0,-0.3125 0.19532,-0.68359 0.21484,-0.39063 0.5664,-0.70313 0.35157,-0.33203 0.82032,-0.54687 0.48828,-0.23438 1.05468,-0.23438 0.13672,0 0.42969,0.11719 0.3125,0.0977 0.60547,0.27344 0.29297,0.15625 0.50781,0.37109 0.23438,0.19531 0.23438,0.39062 z"
         id="path4694"
         inkscape:connector-curvature="0" />
      <path
         d="m 440.28125,366.49517 q 0,-1.64063 0.27344,-3.22266 0.29297,-1.58203 0.625,-3.00781 0.35156,-1.44532 0.625,-2.65625 0.29297,-1.21094 0.29297,-2.10938 0,-0.29297 -0.17579,-0.35156 -0.17578,-0.0781 -0.46875,-0.0781 -0.23437,0 -0.52734,0.0586 -0.27344,0.0586 -0.58594,0.11719 -0.29297,0.0586 -0.58593,0.11718 -0.27344,0.0586 -0.48829,0.0586 -0.66406,0 -1.17187,0 -0.50781,-0.0195 -0.85938,-0.15625 -0.35156,-0.13672 -0.52734,-0.46875 -0.17578,-0.33203 -0.17578,-0.97657 0,-0.27343 0.17578,-0.44921 0.19531,-0.19532 0.46875,-0.3125 0.29297,-0.11719 0.625,-0.15625 0.35156,-0.0586 0.66406,-0.0586 0.23438,0 0.70313,-0.0391 0.48828,-0.0586 1.01562,-0.11719 0.54688,-0.0781 1.03516,-0.13672 0.48828,-0.0586 0.72266,-0.0781 0.3125,-0.0195 0.60546,-0.3125 0.29297,-0.3125 0.50782,-0.72266 0.21484,-0.41015 0.35156,-0.83984 0.15625,-0.42969 0.21484,-0.72266 0.0977,-0.52734 0.23438,-1.30859 0.15625,-0.80078 0.33203,-1.60156 0.17578,-0.82032 0.37109,-1.54297 0.21485,-0.74219 0.42969,-1.17188 0.23438,-0.46875 0.54688,-0.70312 0.3125,-0.25391 0.78125,-0.25391 1.38671,0 1.38671,1.50391 0,0.89843 -0.41015,2.1289 -0.11719,0.39063 -0.27344,0.9375 -0.15625,0.54688 -0.29297,1.13282 -0.13672,0.5664 -0.23437,1.07421 -0.0977,0.50782 -0.0977,0.82032 0,0.68359 0.70313,0.68359 0.83984,0 1.46484,-0.0195 0.625,-0.0195 1.23047,-0.0781 0.60547,-0.0586 1.30859,-0.17578 0.72266,-0.11718 1.75781,-0.33203 0.83985,-0.17578 1.26954,-0.27344 0.44921,-0.11718 0.78125,-0.21484 0.33203,-0.0977 0.68359,-0.19531 0.37109,-0.11719 1.01562,-0.29297 0,0.0391 0.11719,0.13672 0.13672,0.0781 0.27344,0.19531 0.15625,0.11719 0.27344,0.23438 0.11718,0.0977 0.11718,0.15625 0,0.33203 -0.13671,0.60546 -0.13672,0.25391 -0.35157,0.46875 -0.19531,0.21485 -0.44922,0.39063 -0.2539,0.15625 -0.50781,0.29297 -1.25,0.54687 -2.77344,0.85937 -1.5039,0.3125 -2.96875,0.54688 -0.97656,0.15625 -1.75781,0.27344 -0.78125,0.11718 -1.36719,0.2539 -0.5664,0.13672 -0.95703,0.3125 -0.39062,0.15625 -0.5664,0.42969 -0.0977,0.29297 -0.29297,1.01562 -0.17578,0.72266 -0.41016,1.6211 -0.21484,0.8789 -0.42969,1.8164 -0.21484,0.9375 -0.35156,1.67969 -0.0781,0.35156 -0.17578,0.9961 -0.0781,0.625 -0.17578,1.30859 -0.0781,0.68359 -0.13672,1.28906 -0.0391,0.60547 -0.0391,0.89844 0.0391,1.71875 0.64453,2.46094 0.60547,0.74218 2.07031,0.74218 1.01563,-0.0586 1.91406,-0.21484 0.89844,-0.17578 1.83594,-0.56641 0.95703,-0.39062 2.05078,-1.03515 1.09375,-0.66406 2.51953,-1.67969 0.42969,-0.3125 0.82032,-0.64453 0.41015,-0.35156 0.76172,-0.625 0.35156,-0.27344 0.66406,-0.44922 0.3125,-0.19531 0.58594,-0.19531 0.35156,0 0.42968,0.13672 0.0977,0.11718 0.0977,0.44922 0,0.2539 -0.19531,0.625 -0.17578,0.37109 -0.50782,0.80078 -0.3125,0.42968 -0.78125,0.89843 -0.44921,0.44922 -0.97656,0.85938 -1.15234,0.91797 -2.40234,1.73828 -1.23047,0.82031 -2.51953,1.44531 -1.26953,0.60547 -2.53907,0.97657 -1.26953,0.35156 -2.5,0.35156 -1.40625,0 -2.40234,-0.44922 -0.99609,-0.44922 -1.62109,-1.19141 -0.625,-0.76172 -0.91797,-1.71875 -0.29297,-0.95703 -0.29297,-1.99218 z"
         id="path4696"
         inkscape:connector-curvature="0" />
      <path
         d="m 466.70703,353.97563 q 0,-0.21484 -0.11719,-0.39062 -0.11718,-0.17578 -0.29297,-0.29297 -0.15625,-0.11719 -0.35156,-0.17578 -0.17578,-0.0781 -0.3125,-0.0781 -0.85937,0 -1.75781,0.625 -0.89844,0.60547 -1.67969,1.69922 -0.78125,1.09375 -1.36719,2.59766 -0.58593,1.50391 -0.80078,3.26172 0.27344,-0.17578 0.72266,-0.50781 0.44922,-0.33204 0.95703,-0.72266 0.52734,-0.41016 1.03516,-0.82031 0.52734,-0.41016 0.9375,-0.76172 0.89843,-0.76172 1.48437,-1.34766 0.58594,-0.60547 0.91797,-1.09375 0.35156,-0.50781 0.48828,-0.97656 0.13672,-0.48828 0.13672,-1.01563 z m 9.0625,8.33985 q 0,0.68359 -0.50781,1.48437 -0.50781,0.80078 -1.44531,1.79688 -1.07422,1.13281 -2.36329,2.10937 -1.28906,0.95703 -2.65625,1.67969 -1.36718,0.70313 -2.77343,1.11328 -1.40625,0.41016 -2.71485,0.41016 -3.0664,0 -4.74609,-1.97266 -1.67969,-1.97265 -1.67969,-5.78125 0,-1.21094 0.21485,-2.46094 0.21484,-1.26953 0.625,-2.5 0.42968,-1.23046 1.05468,-2.38281 0.64453,-1.15234 1.48438,-2.14844 0.52734,-0.60546 1.17187,-1.23046 0.64453,-0.625 1.42578,-1.11329 0.78125,-0.50781 1.69922,-0.82031 0.9375,-0.3125 2.03125,-0.3125 0.78125,0 1.40625,0.3125 0.625,0.29297 1.05469,0.76172 0.42969,0.46875 0.64453,1.05469 0.23438,0.58594 0.23438,1.15234 0,1.19141 -0.64453,2.42188 -0.64454,1.21093 -1.81641,2.46093 -1.17188,1.23047 -2.8125,2.48047 -1.64063,1.23047 -3.65234,2.46094 -0.27344,0.15625 -0.54688,0.35156 -0.27344,0.17578 -0.27344,0.44922 0,0.58594 0.15625,1.23047 0.15625,0.64453 0.56641,1.19141 0.41016,0.52734 1.09375,0.8789 0.70312,0.35157 1.77734,0.35157 1.36719,0 2.77344,-0.42969 1.42578,-0.44922 2.77344,-1.23047 1.36719,-0.78125 2.63672,-1.85547 1.28906,-1.07422 2.40234,-2.32422 0.625,-0.68359 0.99609,-0.68359 0.21485,0 0.3125,0.2539 0.0977,0.25391 0.0977,0.83985 z"
         id="path4698"
         inkscape:connector-curvature="0" />
      <path
         d="m 512.91797,354.81548 q 0,0.72265 -0.39063,1.11328 -0.39062,0.37109 -0.89843,0.66406 -0.64454,0.29297 -1.44532,0.52735 -0.78125,0.23437 -1.62109,0.42968 -0.82031,0.17578 -1.66016,0.3125 -0.83984,0.11719 -1.60156,0.19532 -0.82031,0.0781 -1.73828,0.15625 -0.91797,0.0781 -1.77734,0.17578 -0.85938,0.0781 -1.60157,0.19531 -0.72265,0.11719 -1.17187,0.29297 -0.21485,0.8789 -0.50781,2.10937 -0.29297,1.21094 -0.56641,2.5586 -0.25391,1.34765 -0.44922,2.73437 -0.19531,1.36719 -0.19531,2.57813 0,0.39062 0.0586,0.83984 0.0586,0.42969 0.19531,0.82031 0.13672,0.3711 0.35157,0.625 0.23437,0.25391 0.54687,0.25391 0.9375,0 1.81641,-0.37109 0.8789,-0.3711 1.60156,-0.74219 0.72266,-0.39063 1.23047,-0.56641 0.52734,-0.19531 0.74219,0.17578 0.0586,0.11719 -0.17578,0.52735 -0.23438,0.39062 -0.70313,0.91797 -0.46875,0.52734 -1.13281,1.11328 -0.66406,0.58593 -1.46485,1.07422 -0.78125,0.48828 -1.66015,0.80078 -0.87891,0.33203 -1.77735,0.33203 -0.5664,0 -1.15234,-0.29297 -0.56641,-0.29297 -1.03516,-0.80078 -0.46875,-0.48828 -0.76171,-1.11328 -0.29297,-0.625 -0.29297,-1.3086 0,-1.83593 0.39062,-3.86718 0.41016,-2.05079 0.85938,-4.29688 0.0976,-0.46875 0.21484,-1.05469 0.13672,-0.58593 0.25391,-1.11328 0.11718,-0.52734 0.19531,-0.89844 0.0781,-0.39062 0.0781,-0.44921 0,-0.21485 -0.29296,-0.46875 -0.27344,-0.25391 -0.58594,-0.39063 -0.48828,-0.0391 -0.85938,-0.0586 -0.37109,-0.0391 -0.54687,-0.0391 -1.99219,0 -3.86719,-0.13671 -1.875,-0.15625 -3.35937,-0.3125 -1.46485,-0.17579 -2.36329,-0.27344 -0.89843,-0.0977 -0.91796,-0.0195 -0.21485,0.83984 -0.52735,2.10937 -0.3125,1.26953 -0.60547,2.59766 -0.27343,1.30859 -0.48828,2.48047 -0.19531,1.17187 -0.19531,1.83593 0,0.41016 0.0586,0.9961 0.0586,0.58594 0.27344,1.13281 0.23438,0.52734 0.66406,0.89844 0.42969,0.37109 1.17188,0.37109 0.19531,0 0.60547,-0.13672 0.42968,-0.15625 0.9375,-0.42968 0.52734,-0.29297 1.07422,-0.6836 0.5664,-0.39062 1.03515,-0.8789 0.3711,-0.3711 0.80078,-0.70313 0.44922,-0.35156 0.95703,-0.35156 0.72266,0 0.72266,0.68359 0,0.35156 -0.13672,0.6836 -0.11719,0.3125 -0.33203,0.64453 -0.19531,0.3125 -0.46875,0.64453 -0.25391,0.3125 -0.54687,0.66406 -0.23438,0.29297 -0.83985,0.78125 -0.58594,0.48828 -1.38672,0.95703 -0.78125,0.48828 -1.66015,0.83985 -0.87891,0.35156 -1.67969,0.35156 -1.15234,0 -1.93359,-0.33203 -0.76172,-0.33203 -1.25,-0.87891 -0.48829,-0.54687 -0.76172,-1.23047 -0.25391,-0.70312 -0.3711,-1.40625 -0.11718,-0.70312 -0.13672,-1.36719 0,-0.68359 0,-1.17187 0,-0.60547 0.11719,-1.38672 0.11719,-0.80078 0.29297,-1.67969 0.19531,-0.8789 0.41016,-1.77734 0.21484,-0.91797 0.39062,-1.73828 0.19531,-0.83985 0.3125,-1.52344 0.11719,-0.68359 0.11719,-1.13281 0,-0.25391 -0.25391,-0.35156 -0.23437,-0.0977 -0.64453,-0.13672 -0.39062,-0.0391 -0.91797,-0.0586 -0.50781,-0.0195 -1.05468,-0.11718 -0.35157,-0.0586 -0.66407,-0.17579 -0.3125,-0.11718 -0.5664,-0.3125 -0.23438,-0.21484 -0.39063,-0.52734 -0.13672,-0.33203 -0.13672,-0.82031 0,-0.60547 0.3125,-0.83985 0.33203,-0.23437 0.78125,-0.23437 0.11719,0 0.64453,0.0781 0.52735,0.0586 1.21094,0.13672 0.6836,0.0586 1.38672,0.13672 0.70313,0.0586 1.17188,0.0586 0.11718,-0.0586 0.3125,-0.42969 0.19531,-0.3711 0.44921,-0.95703 0.25391,-0.58594 0.52735,-1.3086 0.27344,-0.74218 0.54687,-1.5039 0.29297,-0.78125 0.54688,-1.54297 0.2539,-0.78125 0.46875,-1.42578 0.33203,-1.05469 0.78125,-1.50391 0.44922,-0.44922 1.13281,-0.44922 0.44922,0 0.74219,0.17578 0.3125,0.15625 0.48828,0.41016 0.17578,0.23437 0.25391,0.50781 0.0781,0.27344 0.0781,0.50781 0,0.0781 -0.17578,0.56641 -0.15625,0.46875 -0.42969,1.19141 -0.2539,0.72265 -0.58594,1.60156 -0.3125,0.85937 -0.64453,1.71875 -0.3125,0.85937 -0.58593,1.62109 -0.27344,0.76172 -0.44922,1.25 1.5039,0.15625 3.0664,0.29297 1.5625,0.13672 3.06641,0.25391 1.50391,0.0977 2.89062,0.17578 1.40625,0.0586 2.61719,0.0586 0.42969,-0.13672 0.74219,-0.33203 0.33203,-0.19531 0.41016,-0.52734 0.13671,-0.60547 0.29296,-1.3086 0.17579,-0.72265 0.33204,-1.44531 0.17578,-0.74219 0.33203,-1.44531 0.15625,-0.70313 0.29297,-1.26953 0.17578,-0.54688 0.29296,-1.17188 0.13672,-0.625 0.23438,-1.25 0.11719,-0.625 0.25391,-1.21093 0.13671,-0.58594 0.35156,-1.07422 0.42969,-1.01563 1.38672,-1.01563 1.44531,0 1.44531,1.60156 0,0.9961 -0.42969,2.28516 -0.9375,2.96875 -1.38672,4.90234 -0.44922,1.91407 -0.44922,2.57813 0,0.72266 0.72266,0.72266 0.87891,0 1.64063,-0.0195 0.78125,-0.0391 1.5625,-0.0977 0.80078,-0.0781 1.67968,-0.17578 0.87891,-0.0977 1.97266,-0.21485 0.78125,-0.0976 1.48437,-0.23437 0.72266,-0.13672 1.32813,-0.25391 0.60547,-0.13672 1.07422,-0.2539 0.46875,-0.11719 0.78125,-0.15625 0.21484,-0.0195 0.41015,-0.0586 0.21485,-0.0391 0.35157,0 0.15625,0.0195 0.23437,0.15625 0.0977,0.11719 0.0977,0.41016 z"
         id="path4700"
         inkscape:connector-curvature="0" />
      <path
         d="m 518.17187,357.25688 q 0,-1.46484 -0.44921,-2.10937 -0.42969,-0.64453 -0.9961,-0.64453 -0.48828,0 -0.99609,0.19531 -0.48828,0.17578 -0.9375,0.46875 -0.44922,0.29297 -0.82031,0.64453 -0.3711,0.35156 -0.60547,0.6836 -0.46875,0.625 -0.9961,1.42578 -0.50781,0.80078 -1.03515,1.67968 -0.50782,0.87891 -0.97657,1.79688 -0.46875,0.91797 -0.83984,1.79687 -0.35156,0.85938 -0.56641,1.66016 -0.21484,0.78125 -0.21484,1.40625 0,0.91797 0.35156,1.48438 0.35157,0.54687 1.32813,0.54687 0.33203,0 0.97656,-0.41016 0.64453,-0.42968 1.36719,-1.07421 0.74219,-0.64454 1.44531,-1.38672 0.70313,-0.76172 1.15234,-1.44532 0.48829,-0.72265 0.97657,-1.58203 0.50781,-0.85937 0.91797,-1.75781 0.41015,-0.89844 0.66406,-1.75781 0.2539,-0.87891 0.2539,-1.6211 z m 10.91797,8.71094 q 0,0.3125 -0.13672,0.72266 -0.11718,0.39062 -0.39062,0.80078 -0.35156,0.60547 -0.9375,1.25 -0.56641,0.625 -1.28906,1.15234 -0.70313,0.50782 -1.54297,0.83985 -0.83985,0.33203 -1.73828,0.33203 -1.17188,0 -2.03125,-0.52735 -0.83985,-0.52734 -1.46485,-1.42578 -0.60547,-0.91797 -1.01562,-2.1289 -0.39063,-1.21094 -0.64453,-2.5586 -0.85938,1.25 -2.05078,2.48047 -1.17188,1.23047 -2.44141,2.22656 -1.25,0.97657 -2.48047,1.60157 -1.21094,0.60547 -2.14844,0.60547 -0.625,0 -1.21093,-0.3125 -0.56641,-0.3125 -1.01563,-0.83985 -0.42969,-0.52734 -0.68359,-1.21094 -0.25391,-0.68359 -0.25391,-1.44531 0,-0.76172 0.11719,-1.60156 0.13672,-0.83984 0.42969,-1.79688 0.3125,-0.97656 0.78125,-2.10937 0.48828,-1.13281 1.1914,-2.48047 0.78125,-1.52344 1.85547,-2.87109 1.07422,-1.36719 2.1875,-2.38282 1.11328,-1.03515 2.10938,-1.62109 1.01562,-0.60547 1.64062,-0.60547 0.17578,0 0.39063,0.0781 0.23437,0.0781 0.46875,0.17578 0.2539,0.0781 0.46875,0.15625 0.23437,0.0586 0.39062,0.0586 0.15625,0 0.3125,-0.0586 0.15625,-0.0781 0.3125,-0.15625 0.15625,-0.0977 0.3125,-0.17578 0.15625,-0.0781 0.3125,-0.0781 0.23438,0 0.50781,0.15625 0.27344,0.15625 0.52735,0.41016 0.2539,0.23437 0.44922,0.54687 0.19531,0.3125 0.27343,0.60547 0.0781,0.35156 0.19532,0.52735 0.13671,0.15625 0.2539,0.29296 0.13672,0.13672 0.21485,0.33204 0.0976,0.17578 0.0976,0.5664 0,0.19531 -0.13672,0.82031 -0.13672,0.625 -0.3125,1.46485 -0.15625,0.82031 -0.29297,1.71875 -0.13671,0.89844 -0.13671,1.64062 0,2.08985 0.23437,3.41797 0.23438,1.32813 0.64453,2.10938 0.41016,0.76172 0.95703,1.05468 0.56641,0.29297 1.19141,0.29297 1.48437,0 2.42187,-0.50781 0.95704,-0.50781 1.69922,-1.50391 0.21485,-0.27343 0.3711,-0.48828 0.15625,-0.21484 0.3125,-0.21484 0.27343,0 0.48828,0.21484 0.23437,0.21485 0.23437,0.44922 z"
         id="path4702"
         inkscape:connector-curvature="0" />
      <path
         inkscape:transform-center-y="-1.7953869"
         inkscape:transform-center-x="-3.3072917"
         inkscape:connector-curvature="0"
         id="path4707"
         d="m 192.43962,426.30566 c 0,0.22135 -0.006,0.48177 -0.0195,0.78125 -0.013,0.28646 -0.0325,0.61849 -0.0586,0.9961 -0.0261,0.36458 -0.0586,0.74218 -0.0977,1.13281 -0.0261,0.39063 -0.0586,0.79427 -0.0977,1.21094 -0.0391,0.41667 -0.0716,0.78776 -0.0977,1.11328 -0.0261,0.3125 -0.0456,0.57943 -0.0586,0.80078 -0.0911,1.78385 -0.27995,3.61979 -0.56641,5.50781 -0.28646,1.875 -0.64453,3.66537 -1.07422,5.3711 -0.6901,2.82552 -1.6927,5.24088 -3.00781,7.24609 -1.32813,2.03125 -3.16406,3.04687 -5.50781,3.04687 -1.53646,0 -3.08594,-0.30599 -4.64844,-0.91796 -1.54948,-0.59896 -2.85807,-1.43881 -3.92578,-2.51954 -0.63802,-0.75521 -0.95703,-1.27604 -0.95703,-1.5625 0,-0.32552 0.0977,-0.69661 0.29297,-1.11328 0.20833,-0.40365 0.44271,-0.60547 0.70312,-0.60547 0.14323,0 0.26692,0.0781 0.37109,0.23438 0.44271,0.625 0.86589,1.11979 1.26954,1.48437 1.73177,1.53646 3.98437,2.30469 6.75781,2.30469 1.09375,0 2.05078,-0.52083 2.87109,-1.5625 0.41667,-0.50781 0.78125,-1.05469 1.09375,-1.64062 0.32552,-0.58594 0.61198,-1.19792 0.85938,-1.83594 0.24739,-0.63802 0.46875,-1.28906 0.66406,-1.95313 0.19531,-0.66406 0.37109,-1.34114 0.52734,-2.03125 0.13021,-0.63802 0.22787,-1.14583 0.29297,-1.52343 0.0781,-0.37761 0.1237,-0.63151 0.13672,-0.76172 0.0651,-0.54687 0.11071,-1.07422 0.13672,-1.58203 0.0261,-0.50781 2.46093,-13.52865 2.53903,-14.02344 -0.36459,0.16927 -3.49606,13.11849 -4.62887,13.80859 -0.66407,0.40365 -1.26954,0.76823 -1.81641,1.09375 -0.54687,0.32552 -1.03515,0.61198 -1.46484,0.85938 -0.85938,0.50781 -1.82943,0.98958 -2.91016,1.44531 -1.09375,0.45573 -1.99219,0.68359 -2.69531,0.68359 -1.22396,0 -2.16797,-0.48828 -2.83203,-1.46484 -0.66407,-0.97656 -0.9961,-2.10286 -0.9961,-3.37891 0,-0.91145 0.0977,-1.92708 0.29297,-3.04687 0.10417,-0.55989 0.20833,-1.08073 0.3125,-1.5625 0.11719,-0.49479 0.24088,-0.95703 0.37109,-1.38672 0.13021,-0.42969 0.27995,-0.94401 0.44922,-1.54297 0.18229,-0.59896 0.39714,-1.28906 0.64453,-2.07031 0.13021,-0.42969 0.27344,-0.80078 0.42969,-1.11328 0.15625,-0.32552 0.33204,-0.59245 0.52735,-0.80078 0.20833,-0.22135 0.44922,-0.38411 0.72265,-0.48828 0.27344,-0.10417 0.60547,-0.15625 0.9961,-0.15625 0.3776,0 0.67708,0.21484 0.89843,0.64453 0.20833,0.40365 0.3125,0.82031 0.3125,1.25 0,0.26041 -0.0586,0.49479 -0.17578,0.70312 -0.0651,0.10417 -0.15628,0.25391 -0.27344,0.44922 -0.11719,0.19531 -0.26692,0.4362 -0.44921,0.72266 -0.18229,0.28645 -0.32552,0.52734 -0.42969,0.72265 -0.10417,0.18229 -0.16927,0.32552 -0.19531,0.42969 -0.10417,0.3125 -0.19531,0.58594 -0.27344,0.82031 -0.0781,0.23438 -0.14974,0.42969 -0.21485,0.58594 -0.0521,0.15625 -0.11066,0.34506 -0.17578,0.56641 -0.0651,0.20833 -0.14326,0.45573 -0.23437,0.74218 -0.16927,0.5599 -0.29297,1.07422 -0.3711,1.54297 -0.0651,0.45573 -0.0977,0.94402 -0.0977,1.46485 0,0.52083 0.10417,1.15234 0.3125,1.89453 0.22135,0.76823 0.52083,1.15234 0.89844,1.15234 1.14583,0 2.53255,-0.33203 4.16015,-0.99609 1.62761,-0.67709 3.09896,-1.55599 4.41406,-2.63672 1.31511,-1.08073 2.10938,-2.16797 2.38282,-3.26172 0.0521,-0.15625 0.0911,-0.39062 0.11718,-0.70312 0.0261,-0.3125 0.0456,-0.65755 0.0586,-1.03516 0.0261,-0.39063 0.0456,-0.79427 0.0586,-1.21094 0.013,-0.41667 0.026,-0.8138 0.0391,-1.1914 0.0261,-0.39063 0.0521,-0.73568 0.0781,-1.03516 0.0261,-0.3125 0.0651,-0.54688 0.11719,-0.70313 0.33854,-1.19791 0.88541,-1.79687 1.64062,-1.79687 0.71615,0 1.15886,0.18229 1.32813,0.54687 0.18229,0.39063 0.27343,1.00912 0.27343,1.85547 z"
         sodipodi:nodetypes="ccccscccccsccscsccsccccccccccsccscsccccccccscsccccccccccscscccccscccsccc" />
    </g>
    <flowRoot
       xml:space="preserve"
       id="flowRoot28"
       style="font-style:normal;font-weight:normal;font-size:40px;line-height:1.25;font-family:sans-serif;letter-spacing:0px;word-spacing:0px;fill:#000000;fill-opacity:1;stroke:none"
       transform="matrix(0.26458333,0,0,0.26458333,41.136507,90.435822)"><flowRegion
         id="flowRegion30"><rect
           id="rect32"
           width="388.57144"
           height="103.57143"
           x="-0.71428573"
           y="0.13950889" /></flowRegion><flowPara
         id="flowPara34" /></flowRoot>    <path
       style="fill:none;stroke:#ff0000;stroke-width:0.26458332px;stroke-linecap:butt;stroke-linejoin:miter;stroke-opacity:1"
       d="m 66.239441,84.194835 c 0.332786,0.105699 0.646489,0.260927 0.96192,0.408667 0.210976,0.09882 0.424537,0.192836 0.644714,0.26957 0.184609,0.06434 0.369566,0.128923 0.559367,0.176408 0.133285,0.03335 0.26898,0.05571 0.402559,0.08784 0.147807,0.03556 0.294585,0.07557 0.439716,0.120785 0.315638,0.09833 0.623103,0.222903 0.944384,0.30306 0.154919,0.03865 0.315126,0.04976 0.474303,0.05086 0.111159,7.66e-4 0.222323,2.29e-4 0.333484,2.29e-4 0.01958,0 0.03935,-0.0027 0.05875,0 0.01528,0.0021 0.0564,-0.01751 0.04725,0 -0.0082,0.01576 -0.02781,4.84e-4 -0.0407,6.46e-4 0,0 -0.0066,-6.46e-4 -0.0066,-6.46e-4"
       id="path4652"
       inkscape:connector-curvature="0"
       inkscape:path-effect="#path-effect4654"
       inkscape:original-d="m 66.239441,84.194835 c 0.539827,0.171509 1.026118,0.472318 1.559152,0.661459 0.829957,0.2945 0.644238,0.166247 1.370165,0.377976 0.334904,0.09768 0.696439,0.250024 1.039434,0.330729 0.225123,0.05297 0.435075,0.04725 0.661458,0.04725 0.063,0 0.125992,0 0.188987,0 0.01574,0 0.04725,-0.01575 0.04725,0 0,0.01575 -0.0315,0 -0.04725,0" />
    <path
       style="fill:none;stroke:#000000;stroke-width:0.26458332px;stroke-linecap:butt;stroke-linejoin:miter;stroke-opacity:1"
       d="m 64.633042,106.87341 c -0.063,0.0157 -0.125984,0.0315 -0.188988,0.0472"
       id="path4656"
       inkscape:connector-curvature="0"
       inkscape:path-effect="#path-effect4658"
       inkscape:original-d="m 64.633042,106.87341 c -0.063,0.0157 -0.125992,0.0315 -0.188988,0.0472" />
    <path
       style="fill:none;stroke:#000000;stroke-width:0.26458332px;stroke-linecap:butt;stroke-linejoin:miter;stroke-opacity:1"
       d="m 82.067195,139.75733 c 4.031745,-6.86657 8.063491,-13.73313 12.095236,-20.5997"
       id="path4672"
       inkscape:connector-curvature="0"
       inkscape:path-effect="#path-effect4674"
       inkscape:original-d="m 82.067195,139.75733 12.095236,-20.5997" />
  </g>
</svg>
